<?xml version="1.0" standalone="no"?>
<!DOCTYPE svg PUBLIC "-//W3C//DTD SVG 20010904//EN"
 "http://www.w3.org/TR/2001/REC-SVG-20010904/DTD/svg10.dtd">
<svg version="1.0" xmlns="http://www.w3.org/2000/svg"
 width="700.000000pt" height="700.000000pt" viewBox="0 0 700.000000 700.000000"
 preserveAspectRatio="xMidYMid meet">
<metadata>
Created by potrace 1.14, written by Peter Selinger 2001-2017
</metadata>
<g transform="translate(0.000000,700.000000) scale(0.100000,-0.100000)"
fill="#000000" stroke="none">
<path d="M3219 6396 c-3 -3 -221 -43 -279 -51 -8 -1 -31 -5 -50 -9 -19 -3 -98
-17 -175 -31 -77 -14 -149 -27 -160 -29 -11 -2 -40 -7 -65 -11 -25 -4 -56 -9
-70 -12 -42 -7 -180 -78 -280 -144 -226 -148 -584 -448 -650 -544 -60 -87 -63
-121 -65 -700 -2 -416 -4 -475 -19 -515 -35 -91 -134 -521 -170 -735 -3 -16
-12 -70 -20 -120 -9 -49 -18 -110 -21 -134 -3 -23 -7 -55 -9 -70 -5 -27 -14
-91 -21 -151 -2 -19 -9 -71 -14 -115 -15 -116 -26 -228 -36 -345 -3 -36 -7
-90 -10 -120 -31 -354 -48 -782 -49 -1240 -1 -173 3 -342 7 -375 35 -249 213
-435 416 -436 209 0 1013 19 1116 26 33 2 113 7 179 10 65 3 135 8 155 10 20
1 77 6 126 9 50 4 106 9 125 11 19 2 64 7 100 10 36 4 76 8 90 10 14 2 54 6
90 10 36 3 72 8 80 10 8 2 40 7 70 10 30 3 123 17 205 31 83 14 163 28 179 30
16 3 32 6 35 8 3 2 22 7 41 10 37 6 59 10 100 20 14 3 36 8 50 10 58 11 344
86 455 120 122 38 387 133 460 166 201 90 281 129 415 203 360 201 696 465
805 632 104 159 155 326 155 511 0 143 -39 298 -108 424 -87 158 -298 396
-472 530 -25 19 -47 38 -50 41 -10 13 -187 127 -255 165 -150 85 -359 169
-490 199 -229 51 -333 63 -540 63 -144 -1 -193 -4 -345 -23 -290 -37 -665
-205 -900 -404 -186 -157 -364 -376 -490 -601 -61 -110 -59 -108 -58 -84 2 33
-19 358 -27 424 -2 19 -7 69 -10 110 -4 41 -9 90 -11 108 -2 18 -6 56 -9 85
-10 97 -15 152 -20 187 -3 19 -7 53 -10 75 -2 22 -7 58 -10 80 -3 22 -7 56
-10 75 -3 19 -8 49 -10 65 -10 77 -46 312 -50 325 -2 8 -7 29 -9 45 -5 30 -5
31 37 31 233 2 453 98 594 260 32 36 58 56 78 60 17 3 50 10 75 15 25 6 52 12
60 14 473 106 549 132 617 209 63 72 86 128 80 197 -6 70 -43 152 -88 198 -33
33 -120 81 -147 81 -12 0 -214 58 -218 63 -1 1 -4 57 -8 124 -17 358 -167 688
-391 858 -28 22 -86 40 -96 31z"/>
</g>
</svg>
