<svg viewBox="0 0 72 72" xmlns="http://www.w3.org/2000/svg"><path d="m63.1103 54.1648c-10.9692 9.4397-26.3611 11.6803-46.4096 11.5634 0 0-3.7408 1.1495-4.5981-3.5655 0 0-.7696-20.8863 3.809-35.5476 0 0-.1948-5.9814.0293-9.8976.0389-.6722.3312-1.2957.828-1.7535 5.7574-5.319 8.3487-6.0983 8.3487-6.0983l8.3682-1.4808c1.3249.906 4.2279 4.1792 3.7505 9.995l.1071-.3994 3.2148.9012c1.1226.3416 1.8585 1.525 1.8412 2.6546-.0098 1.169-2.8056 2.0457-2.8056 2.0457-6.1178 1.3834-6.1178 1.3834-6.1178 1.3834-1.8314 2.8738-5.5937 3.1758-7.279 3.0979-.0877-.2435-.5927-.0195-.1933 0 .5942 1.5002 1.2893 5.1144 1.9225 11.807l.1753 1.8606c.0487.5261.3166 4.7286.3847 7.4757 1.812-4.413 6.6361-12.5609 15.7348-13.8468 13.4631-1.9192 20.1654 8.4948 20.1654 8.4948s.2338.2728.526.7696c2.0654 3.4486 1.2471 7.9103-1.8021 10.5406z" fill="#fadcbc" stroke="#fadcbc"/><path d="m26.5081 26.81c-.41-.02-.74-.06-.94-.09l.64-.49c.11.14.21.33.3.58z" fill="#fadcbc" stroke="#fadcbc"/><path d="m26.5081 26.81c-.41-.02-.74-.06-.94-.09l.64-.49c.11.14.21.33.3.58z" fill="#fadcbc" stroke="#fadcbc"/><path d="m21.9216 26.23s5.3444-4.9857 1.6152-6.3791l12.7609-.4198.6708-1.142.2196-1.8442c1.0717.1781 3.365.9463 3.6416 1.0119 0 0 2.4043 1.8731.4487 4.0933l-7.7788 2.2345c0-.0001-4.7232 3.8035-11.578 2.4454z" fill="#debb90"/><path d="m21.9216 26.23c.7946 9.2179 2.5603 25.6411 2.0697 27.7452-.0446.6989.6552.8094 1.0129.2954.8285-.6666 2.7669-2.5969 3.8182-5.1942 0-5.762-.6668-12.458-2.2191-22.2629-.5702-1.5845-2.9393-1.565-4.6817-.5835z" fill="#debb90"/><path d="m48.1988 34.0995s10.2391 6.9729 3.106 16.4198c0 0 2.1324 8.5167.1552 9.8508s20.619-5.5453 12.1362-18.5633c.0001.0001-5.1583-7.5727-15.3974-7.7073z" fill="#debb90"/><g style="fill:none;stroke:#000;stroke-linecap:round;stroke-linejoin:round;stroke-miterlimit:10;stroke-width:2"><path d="m27.4684 40.5519c-.4282-4.2794-1.1326-12.7197-1.9548-13.7543 0 0 5.2009 1.1102 7.8117-2.9736"/><path d="m34.5031 53.0878s10.8019 2.7012 19.2868-4.3269"/><path d="m27.7195 50.6312s2.8688-14.4737 16.3682-16.3928 20.2138 8.5143 20.2138 8.5143.2302.2755.5269.7704c2.0724 3.4564 1.2505 7.9342-1.8035 10.5637-10.9923 9.4642-26.4258 11.7125-46.5183 11.5968 0 0-3.7502 1.1456-4.6096-3.574 0 0-.7689-20.9388 3.8178-35.6261 0 0-.1965-6.0013.0307-9.9287.0388-.67.3337-1.2971.827-1.7521 5.7789-5.3313 8.3742-6.1149 8.3742-6.1149l8.3881-1.4838c1.436.9837 4.7256 4.7388 3.5707 11.4953"/><path d="m25.5888 19.2948s1.8163 2.5911 3.6325-.2835v-3.0113l-.46-1.6583-.3606-.278"/><path d="m29.5442 19.2948s1.8163 2.5911 3.6325-.2835v-3.0113l-.8731-2.1254"/><path d="m36.8203 19.0113c-1.9616 1.8889-3.3207 0-3.3207 0"/><path d="m20.301 16.4465c.5038.4387 1.1429 1.2206 1.2784 2.4327.0322.2877.131.5691.3359.7736.595.5939 1.9586 1.5167 3.3223-.6415v-3.0113l-.6351-1.2677"/><path d="m40.3564 18.289c1.9261.5697 2.2618 3.4266-.7028 4.0993-6.3283 1.4358-6.3283 1.4358-6.3283 1.4358"/></g></svg>