<svg viewBox="0 0 72 72" xmlns="http://www.w3.org/2000/svg"><g style="fill:none;stroke:#000;stroke-linecap:round;stroke-linejoin:round;stroke-miterlimit:10;stroke-width:2"><path d="m27.4684 40.5519c-.4282-4.2794-1.1326-12.7197-1.9548-13.7543 0 0 5.2009 1.1102 7.8117-2.9736"/><path d="m34.5031 53.0878s10.8019 2.7012 19.2868-4.3269"/><path d="m27.7195 50.6312s2.8688-14.4737 16.3682-16.3928 20.2138 8.5143 20.2138 8.5143.2302.2755.5269.7704c2.0724 3.4564 1.2505 7.9342-1.8035 10.5637-10.9923 9.4642-26.4258 11.7125-46.5183 11.5968 0 0-3.7502 1.1456-4.6096-3.574 0 0-.7689-20.9388 3.8178-35.6261 0 0-.1965-6.0013.0307-9.9287.0388-.67.3337-1.2971.827-1.7521 5.7789-5.3313 8.3742-6.1149 8.3742-6.1149l8.3881-1.4838c1.436.9837 4.7256 4.7388 3.5707 11.4953"/><path d="m25.5888 19.2948s1.8163 2.5911 3.6325-.2835v-3.0113l-.46-1.6583-.3606-.278"/><path d="m29.5442 19.2948s1.8163 2.5911 3.6325-.2835v-3.0113l-.8731-2.1254"/><path d="m36.8203 19.0113c-1.9616 1.8889-3.3207 0-3.3207 0"/><path d="m20.301 16.4465c.5038.4387 1.1429 1.2206 1.2784 2.4327.0322.2877.131.5691.3359.7736.595.5939 1.9586 1.5167 3.3223-.6415v-3.0113l-.6351-1.2677"/><path d="m40.3564 18.289c1.9261.5697 2.2618 3.4266-.7028 4.0993-6.3283 1.4358-6.3283 1.4358-6.3283 1.4358"/></g></svg>