<svg xmlns="http://www.w3.org/2000/svg" fill="none" viewBox="0 0 100 100" height="100" width="100" id="Sad-Pepe-Frog-Hand-Drawn--Streamline-Memes.svg"><desc>Sad Pepe Frog Hand Drawn Streamline Element: https://streamlinehq.com</desc><path fill="#2ed6a2" fill-rule="evenodd" d="M66.038 25.792c-15.2 -2.91 -19.727 -0.647 -26.842 3.557 -2.264 1.294 -5.174 2.587 -6.791 4.851 -1.294 1.94 5.821 3.234 7.761 4.204 4.205 1.94 8.409 4.205 12.613 5.175 9.379 2.264 19.404 -1.294 18.434 -10.349 -0.323 -3.234 -2.91 -6.791 -3.558 -5.821 -0.97 0.97 2.264 0.97 2.588 6.145 0.647 8.408 -8.732 10.995 -17.14 8.731 -4.205 -0.97 -8.086 -3.234 -12.29 -5.174 -1.94 -0.97 -4.527 -1.294 -6.468 -2.264 1.294 -1.617 9.056 -5.821 9.379 -5.821 10.349 -5.498 22.315 -0.647 22.638 -2.264 0 -0.647 0 -0.97 -0.324 -0.97Z" clip-rule="evenodd" stroke-width="1"></path><path fill="#2ed6a2" fill-rule="evenodd" d="M69.92 29.674c3.88 -1.94 11.642 -3.558 16.17 -3.881 0.646 0 0.646 -0.97 0 -0.97 -6.145 -0.324 -11.966 0.323 -16.818 3.88 -0.646 0.324 0 1.294 0.647 0.97Z" clip-rule="evenodd" stroke-width="1"></path><path fill="#2ed6a2" fill-rule="evenodd" d="M90.294 26.762c1.94 0.324 4.204 0.97 5.497 2.588 2.264 1.94 3.558 6.144 1.294 8.408 -1.617 1.617 -4.204 1.617 -6.468 1.94 -4.851 0.97 -16.817 2.91 -20.374 -0.97 -1.617 -1.94 -2.91 6.468 20.697 2.91 2.588 -0.323 5.498 -0.646 7.439 -2.263 2.91 -2.91 1.617 -8.085 -1.617 -10.672 -1.94 -1.617 -3.566 -2.372 -6.153 -2.696 -0.76 -0.095 -0.962 0.432 -0.315 0.755Z" clip-rule="evenodd" stroke-width="1"></path><path fill="#2ed6a2" fill-rule="evenodd" d="M80.692 32.27c-4.595 2.688 -3.687 8.498 -0.64 8.392 4.416 -0.339 17.458 1.33 11.383 -7.575 -1.526 -2.142 -6.149 -3.507 -10.743 -0.818Z" clip-rule="evenodd" stroke-width="1"></path><path fill="#2ed6a2" fill-rule="evenodd" d="M80.407 31.572c-5.291 2.974 -4.15 10.152 -0.406 9.762 2.376 -0.157 8.42 0.303 11.594 -1.481 5.291 -2.974 -1.302 -13.944 -11.188 -8.28Zm10.356 1.464c4.835 7.46 -4.178 6.098 -10.97 6.593 -0.67 -0.05 -0.981 -0.412 -1.291 -0.773 -2.613 -5.602 8.9 -10.466 12.261 -5.82Z" clip-rule="evenodd" stroke-width="1"></path><path fill="#2ed6a2" fill-rule="evenodd" d="M52.266 32.988c-5.172 1.263 -5.962 7.09 -3.012 7.86 4.328 0.938 16.349 6.265 13.073 -4.005 -0.85 -2.488 -4.89 -5.118 -10.061 -3.855Z" clip-rule="evenodd" stroke-width="1"></path><path fill="#2ed6a2" fill-rule="evenodd" d="M52.192 32.239c-5.92 1.337 -6.879 8.541 -3.18 9.238 2.322 0.529 7.981 2.697 11.534 1.895 6.235 -1.216 2.739 -13.733 -8.354 -11.133Zm9.506 4.363c2.5 8.53 -5.748 4.649 -12.397 3.182 -0.63 -0.24 -0.823 -0.676 -1.017 -1.11 -0.587 -5.995 11.956 -7.678 13.414 -2.072Z" clip-rule="evenodd" stroke-width="1"></path><path fill="#2ed6a2" fill-rule="evenodd" d="M20.44 29.026C10.413 37.758 9.12 43.256 5.885 47.459c-1.94 2.588 -3.88 9.702 -2.587 17.14 0.97 5.175 3.88 10.673 9.702 14.554 12.613 8.408 29.106 11.642 44.306 8.408 9.055 -1.94 18.557 -7.83 26.319 -12.68 0.647 -0.324 -2.266 -0.324 -2.589 0 -7.762 4.527 -14.998 9.446 -23.73 11.063 -14.553 2.91 -30.723 -0.323 -43.012 -8.732 -5.175 -3.557 -7.762 -8.408 -8.732 -13.26 -1.294 -6.79 0.323 -13.905 1.94 -16.17C10.737 43.58 11.621 38.625 21 30.216c0 0 0.086 -1.513 -0.56 -1.19Z" clip-rule="evenodd" stroke-width="1"></path><path fill="#2ed6a2" fill-rule="evenodd" d="M62.804 20.294c-0.97 -1.293 -2.91 -12.289 -16.17 -13.582 -7.438 -0.647 -14.23 3.234 -19.08 8.732 -7.762 8.731 -8.409 19.727 -7.115 19.727 0.323 0 0.323 -0.323 0.323 -0.647 0 -6.468 3.234 -13.26 8.085 -18.434 10.996 -11.642 25.226 -9.378 30.723 -0.646 0.97 1.617 1.294 3.557 2.588 5.174 0.323 0.647 1.94 0.647 2.587 0.97 1.94 0.647 2.91 2.264 2.91 4.204 0 0.647 0.97 0.647 0.97 0 -0.323 -2.91 -2.587 -4.527 -5.82 -5.498Z" clip-rule="evenodd" stroke-width="1"></path><path fill="#2ed6a2" fill-rule="evenodd" d="M95.145 27.087c-0.324 -3.558 -3.234 -7.439 -7.115 -7.115 -1.617 -3.234 -3.557 -6.792 -6.791 -9.055 -5.822 -4.205 -15.847 -2.911 -21.345 1.617 -0.323 0.323 0 1.293 0.647 0.646 4.528 -3.88 14.23 -4.85 19.727 -0.97 2.911 1.94 5.175 5.821 6.468 8.732 0.324 0.323 0.647 0.647 0.97 0.323 2.911 -0.97 5.498 2.264 6.469 5.822 0.323 0.97 0.97 0.646 0.97 0Z" clip-rule="evenodd" stroke-width="1"></path><path fill="#2ed6a2" fill-rule="evenodd" d="M66.434 21.553c-0.323 0 -0.323 0.324 -0.323 0.647 0.323 0.647 0.647 0 4.204 -0.323 0.323 0 11.32 -0.97 11.32 -0.97 3.88 -0.324 4.203 0.323 4.203 -0.324 0.647 -1.94 -11.319 -1.617 -19.404 0.97Z" clip-rule="evenodd" stroke-width="1"></path><path fill="#2ed6a2" fill-rule="evenodd" d="M59.894 19.97C48.9 16.738 39.52 19 33.375 23.852c-0.647 0.324 0 1.294 0.647 0.647 6.468 -4.527 18.434 -5.498 25.549 -3.88 0.646 0.323 0.97 -0.647 0.323 -0.647Z" clip-rule="evenodd" stroke-width="1"></path><path fill="#2ed6a2" fill-rule="evenodd" d="M69.273 42.285c-1.617 3.234 -6.468 5.174 -10.026 5.821 -0.647 0 -0.647 0.97 0 0.97 4.851 0 9.379 -1.617 10.672 -6.144 0.324 -0.97 -0.323 -1.294 -0.646 -0.647Z" clip-rule="evenodd" stroke-width="1"></path><path fill="#2ed6a2" fill-rule="evenodd" d="M61.834 47.783c-2.264 3.234 -10.995 6.145 -12.936 5.821 -0.647 0 -0.647 0.97 0 0.97 2.264 0.324 8.085 -0.97 10.672 -2.91 1.294 -0.647 3.881 -3.558 2.911 -4.205 -0.323 0 -0.647 0 -0.647 0.324Z" clip-rule="evenodd" stroke-width="1"></path><path fill="#2ed6a2" fill-rule="evenodd" d="M55.043 47.137c-3.234 -0.323 -14.23 -4.85 -16.17 -4.85 -0.647 0 -0.647 0.97 0 0.97 1.294 0.323 6.791 3.233 10.996 4.527 6.144 1.617 5.82 -0.647 5.174 -0.647Z" clip-rule="evenodd" stroke-width="1"></path><path fill="#2ed6a2" fill-rule="evenodd" d="M97.732 38.082c-0.647 4.204 -7.115 9.379 -9.379 10.025 -2.264 0.97 3.234 3.558 5.175 11.966 0 0.647 0.97 0.324 0.97 -0.323 -0.647 -3.881 -2.264 -7.438 -4.528 -10.672 3.234 -1.617 8.409 -6.468 8.732 -10.996 0 -0.323 -0.97 -0.647 -0.97 0Z" clip-rule="evenodd" stroke-width="1"></path><path fill="#2ed6a2" fill-rule="evenodd" d="M85.442 48.754c-3.88 -0.324 -4.204 -0.324 -9.378 0.646 -0.647 0 -0.647 0.97 0 0.97 5.821 0 5.174 0 9.379 -0.646 0.646 -0.324 0.646 -1.294 0 -0.97Z" clip-rule="evenodd" stroke-width="1"></path><path fill="#2ed6a2" fill-rule="evenodd" d="M72.183 48.108c5.822 4.85 4.851 3.557 5.821 4.527 0.324 0.647 1.294 0 0.647 -0.647 -1.94 -2.91 -3.557 -3.88 -6.144 -4.85 -0.324 0 -0.97 0.646 -0.324 0.97Z" clip-rule="evenodd" stroke-width="1"></path><path fill="#2ed6a2" fill-rule="evenodd" d="M91.91 68.157c3.235 -1.94 5.822 -5.174 2.588 -7.114 -1.94 -0.97 -4.528 -0.324 -6.468 0.323 -21.021 6.468 -30.076 -2.264 -43.012 -2.264 -5.498 0 -12.936 2.264 -12.936 7.762 0 5.821 6.144 5.821 11.642 5.498 12.29 -0.324 24.255 4.542 36.544 3.572 5.175 0.323 12.936 -2.602 11.643 -7.776Zm-0.97 0c-0.323 -0.323 0 -0.646 0 -0.646 2.588 -1.294 5.175 -4.204 2.911 -5.498 -1.617 -0.647 -3.88 0 -5.498 0.647 -21.344 6.791 -31.046 -1.617 -43.335 -1.617 -4.528 0 -10.996 1.617 -10.996 6.144 0 4.528 5.498 4.204 10.026 3.881 12.289 -0.323 23.931 4.204 36.22 3.558 4.205 -0.324 11.966 -1.94 10.673 -6.469Z" clip-rule="evenodd" stroke-width="1"></path><path fill="#2ed6a2" fill-rule="evenodd" d="M38.873 67.187c13.583 -3.234 29.106 7.115 51.42 0.97 0.324 0 0.324 -0.323 0.324 -0.646 -0.323 -1.294 -2.264 1.293 -14.23 0.97 -15.846 -0.323 -25.225 -5.498 -37.837 -2.264 -0.324 0.323 -0.324 1.294 0.323 0.97Z" clip-rule="evenodd" stroke-width="1"></path><path fill="#2ed6a2" fill-rule="evenodd" d="M25.613 66.864c-1.293 3.88 0.324 7.438 3.558 8.732 0.647 0.323 0.97 -0.647 0.323 -0.97 -2.264 -1.618 -3.557 -5.175 -3.234 -7.762 0.647 -0.647 -0.323 -0.647 -0.647 0Z" clip-rule="evenodd" stroke-width="1"></path><path fill="#2ed6a2" fill-rule="evenodd" d="M12.678 76.89C4.593 78.83 2.976 84.004 0.065 90.796c-0.323 0.646 0.647 0.97 0.97 0.323C4.27 85.621 6.21 80.447 13.001 77.86c0.647 -0.323 0.324 -1.293 -0.323 -0.97Z" clip-rule="evenodd" stroke-width="1"></path><path fill="#2ed6a2" fill-rule="evenodd" d="M68.626 83.357c0.97 0.646 2.263 2.263 3.557 3.234 0.647 0.646 4.527 3.557 5.498 4.527 0.323 0.324 1.293 -0.323 0.647 -0.647 -3.881 -4.85 -5.498 -6.144 -9.056 -8.085 -0.647 -0.323 -1.293 0.647 -0.646 0.97Z" clip-rule="evenodd" stroke-width="1"></path><path fill="#2ed6a2" fill-rule="evenodd" d="M26.584 80.123c11.966 4.527 22.961 7.114 35.574 3.557 0.646 -0.323 0.323 -0.97 -0.324 -0.97 -10.349 2.587 -25.872 -0.647 -34.927 -3.558 -0.647 -0.323 -0.97 0.647 -0.323 0.97Z" clip-rule="evenodd" stroke-width="1"></path></svg>